<?xml version="1.0" standalone="no"?>
<!DOCTYPE svg PUBLIC "-//W3C//DTD SVG 20010904//EN"
 "http://www.w3.org/TR/2001/REC-SVG-20010904/DTD/svg10.dtd">
<svg version="1.0" xmlns="http://www.w3.org/2000/svg"
 width="1392.000000pt" height="752.000000pt" viewBox="0 0 1392.000000 752.000000"
 preserveAspectRatio="xMidYMid meet">
<metadata>
Created by potrace 1.16, written by Peter Selinger 2001-2019
</metadata>
<g transform="translate(0.000000,752.000000) scale(0.100000,-0.100000)"
fill="#000000" stroke="none">
<path d="M6985 6454 c-137 -29 -302 -126 -386 -227 -90 -107 -139 -208 -164
-335 -46 -229 31 -474 198 -633 48 -46 49 -48 26 -53 -13 -3 -60 -12 -104 -21
-96 -20 -263 -67 -336 -95 -30 -11 -58 -20 -64 -20 -5 0 -57 29 -115 66 -363
226 -761 332 -919 244 -77 -44 -85 -63 -90 -213 -4 -178 26 -439 85 -719 l17
-77 -41 -54 c-67 -89 -171 -278 -222 -404 l-48 -118 -84 -7 c-104 -8 -195 -26
-229 -44 -42 -21 -75 -68 -98 -136 -85 -256 -75 -606 26 -869 42 -110 67 -129
232 -183 77 -25 146 -46 154 -46 7 0 19 -12 26 -27 57 -128 212 -343 345 -481
94 -98 259 -239 334 -286 23 -14 42 -27 42 -29 0 -1 16 -124 35 -271 27 -208
39 -274 52 -289 26 -29 76 -47 128 -47 41 0 45 -2 45 -23 0 -34 25 -52 103
-76 184 -56 545 -46 609 17 10 9 49 98 88 197 40 99 75 183 78 186 4 4 48 0
97 -9 104 -17 566 -21 677 -5 l67 9 25 -80 c13 -45 32 -107 41 -139 21 -72 40
-85 138 -93 42 -4 74 -10 72 -14 -10 -16 31 -51 70 -61 71 -17 256 -22 355
-10 115 14 244 47 270 70 19 16 66 181 145 509 l37 153 56 47 c95 79 241 223
304 300 290 353 446 789 436 1220 l-2 124 104 53 c57 30 104 53 105 52 0 -1 9
-20 21 -42 27 -52 128 -129 197 -151 48 -15 59 -15 113 -2 57 14 60 16 86 69
35 71 28 82 -90 134 -50 22 -101 47 -114 56 l-23 16 33 17 c17 9 39 27 47 40
23 35 23 100 1 125 -24 26 -76 36 -116 23 -16 -6 -32 -8 -34 -3 -3 4 5 27 17
51 33 69 30 198 -6 272 -37 76 -100 132 -171 152 -55 16 -57 16 -109 -9 -30
-14 -62 -34 -71 -44 -30 -33 -45 -92 -46 -176 0 -123 22 -188 95 -284 l43 -56
-51 -27 c-29 -15 -57 -27 -62 -28 -6 0 -21 39 -34 88 -209 764 -898 1344
-1755 1478 -113 17 -135 26 -98 38 25 8 119 123 160 194 57 101 84 202 85 327
2 129 -15 201 -73 320 -134 273 -463 432 -765 369z m318 -83 c96 -34 155 -71
221 -142 81 -85 117 -138 149 -219 35 -89 48 -194 37 -305 -9 -95 -22 -140
-63 -221 -36 -71 -144 -204 -166 -204 -6 0 -11 -4 -11 -10 0 -5 -18 -21 -40
-35 -151 -95 -299 -125 -448 -90 -195 46 -340 159 -423 331 -70 144 -87 300
-49 448 56 221 251 411 472 461 86 20 245 13 321 -14z m-1921 -1066 c172 -30
421 -136 647 -277 l104 -65 61 24 c88 35 284 88 406 111 188 36 197 36 285 7
61 -20 109 -27 200 -32 124 -5 186 5 313 51 35 13 57 14 131 6 504 -57 950
-259 1304 -590 77 -72 222 -251 292 -360 112 -175 201 -391 247 -601 19 -90
22 -134 23 -329 0 -176 -4 -243 -18 -308 -25 -121 -72 -279 -112 -373 -111
-265 -341 -565 -553 -724 l-80 -60 -32 -125 c-45 -174 -119 -458 -130 -501 -9
-33 -15 -38 -68 -53 -93 -27 -282 -41 -395 -29 -54 6 -100 13 -103 16 -5 5
-64 260 -78 341 -4 21 -11 48 -16 61 -8 22 -10 22 -67 9 -32 -7 -121 -23 -198
-35 -183 -28 -549 -31 -723 -6 -135 20 -168 21 -175 5 -3 -7 -41 -101 -85
-208 l-79 -195 -39 -8 c-77 -17 -303 -13 -421 7 l-111 20 -6 40 c-4 23 -15
124 -26 226 -11 102 -23 211 -26 242 l-7 57 -61 29 c-324 152 -661 480 -846
825 -23 42 -47 77 -54 77 -6 0 -77 20 -156 46 -120 37 -150 51 -176 78 -69 72
-116 276 -117 501 0 219 35 386 95 445 33 33 57 38 244 49 77 4 146 11 153 15
9 6 9 13 -3 31 -14 21 -13 29 15 100 57 149 175 357 269 475 l21 26 -25 114
c-51 236 -86 519 -86 690 0 63 4 120 8 127 27 43 113 53 254 28z m4313 -1126
c15 -8 46 -39 68 -70 33 -48 40 -66 44 -120 3 -46 0 -75 -12 -103 -19 -45 -32
-38 -36 19 -3 49 -32 111 -58 125 -34 18 -88 12 -111 -12 -22 -24 -23 -29 -14
-105 5 -35 11 -53 20 -53 8 0 14 -9 14 -19 0 -11 6 -21 13 -24 17 -6 7 -14
-28 -21 -17 -3 -24 -3 -17 0 10 5 8 10 -7 20 -54 38 -92 238 -61 315 27 64
108 85 185 48z m-32 -199 c7 -9 22 -22 34 -28 15 -8 31 -40 53 -107 38 -115
35 -137 -13 -92 -33 30 -47 52 -93 137 -11 19 -23 38 -29 42 -6 5 0 11 13 14
24 7 29 20 10 27 -7 2 -21 -2 -30 -11 -12 -10 -18 -11 -18 -4 0 7 5 12 11 12
6 0 8 8 4 19 -5 15 -1 18 20 13 14 -2 31 -12 38 -22z m14 -207 c-10 -10 31
-35 45 -27 6 4 8 3 5 -2 -3 -5 3 -20 13 -34 l18 -24 50 27 c55 30 102 36 102
12 0 -8 5 -15 10 -15 6 0 10 -9 10 -20 0 -11 -6 -20 -13 -20 -7 0 -27 -12 -44
-27 -27 -24 -210 -99 -219 -90 -7 7 19 83 34 100 13 14 13 17 1 12 -14 -5
-109 80 -98 88 5 4 70 25 83 26 5 1 6 -2 3 -6z m-40 -181 c-7 -20 -12 -43 -12
-50 0 -12 -132 -78 -140 -70 -2 2 -7 26 -10 54 l-7 51 72 37 c55 27 76 33 91
26 16 -9 17 -14 6 -48z m277 -81 c49 -33 130 -71 151 -71 20 0 19 -6 -6 -41
-12 -18 -29 -29 -44 -29 -49 0 -255 114 -255 141 0 16 63 39 89 33 13 -3 43
-18 65 -33z m-4134 -1921 c4 0 12 -66 19 -147 6 -82 14 -173 18 -204 l5 -56
-51 11 c-39 8 -53 15 -56 31 -5 24 -55 408 -55 423 0 6 26 -5 57 -24 31 -19
60 -34 63 -34z m2005 -293 c14 -65 25 -120 25 -123 0 -7 -85 -4 -97 4 -6 4
-26 49 -43 100 -17 51 -34 100 -37 108 -4 10 3 14 23 15 16 0 45 6 64 13 19 7
36 10 37 7 1 -3 14 -59 28 -124z"/>
<path d="M7020 6289 c-69 -12 -169 -58 -235 -109 -155 -120 -234 -338 -194
-532 54 -258 323 -448 575 -408 131 21 207 61 304 159 138 140 188 315 145
500 -22 91 -70 175 -142 246 -126 125 -276 173 -453 144z m231 -55 c110 -32
239 -136 287 -230 33 -66 62 -173 62 -233 0 -131 -65 -276 -166 -370 -193
-181 -454 -181 -650 1 -123 116 -181 285 -149 438 41 198 175 345 357 394 72
20 192 20 259 0z"/>
<path d="M7084 6146 c-3 -8 -7 -22 -8 -32 -2 -10 -18 -23 -38 -30 -86 -30
-130 -85 -130 -163 0 -80 36 -127 125 -164 l37 -16 0 -85 c0 -46 3 -91 6 -100
13 -34 -48 -11 -104 38 l-24 21 -29 -33 c-16 -18 -27 -37 -24 -42 12 -19 91
-68 135 -83 40 -13 44 -18 44 -47 1 -24 7 -35 23 -41 29 -10 53 12 53 50 0 23
6 28 43 39 111 34 167 150 121 248 -17 36 -74 80 -131 103 l-33 13 0 89 c0
102 4 106 67 60 l39 -28 27 19 c15 11 27 28 27 38 0 29 -50 69 -107 86 -44 13
-52 19 -55 42 -2 21 -9 28 -31 30 -17 2 -29 -2 -33 -12z"/>
<path d="M5180 5199 c0 -6 22 -36 48 -67 85 -99 282 -420 282 -459 0 -5 -24
-26 -53 -46 -85 -59 -197 -179 -197 -212 0 -25 8 -20 103 71 113 110 197 171
208 153 5 -8 8 -8 14 0 16 27 -205 386 -313 509 -50 56 -92 80 -92 51z"/>
<path d="M6965 4960 c-131 -13 -371 -49 -401 -60 -43 -17 -67 -11 -101 22 -27
26 -37 30 -51 22 -27 -17 -25 -36 9 -87 52 -78 57 -80 179 -53 229 52 311 60
575 61 282 0 341 -7 585 -66 195 -48 203 -47 250 33 34 60 35 87 2 99 -13 5
-21 5 -18 0 6 -9 -22 -26 -36 -23 -5 1 -7 -3 -5 -9 5 -25 -31 -34 -90 -20
-154 35 -237 51 -333 65 -126 20 -440 28 -565 16z"/>
<path d="M5530 3833 c-74 -29 -123 -118 -123 -222 -1 -83 16 -133 54 -166 110
-92 247 87 209 272 -18 85 -83 139 -140 116z"/>
<path d="M4588 3328 c-18 -34 -23 -262 -6 -313 16 -49 43 -58 60 -18 16 40 16
268 0 316 -15 42 -35 48 -54 15z"/>
</g>
</svg>
